<?xml version="1.0" encoding="iso-8859-1"?>
<!-- Generator: Adobe Illustrator 19.0.0, SVG Export Plug-In . SVG Version: 6.00 Build 0)  -->
<svg version="1.1" id="Capa_1" xmlns="http://www.w3.org/2000/svg" xmlns:xlink="http://www.w3.org/1999/xlink" x="0px" y="0px"
	 viewBox="0 0 484.361 484.361" style="enable-background:new 0 0 484.361 484.361;" xml:space="preserve">
<g>
	<g>
		<path d="M446.901,69.391l-2.4-2.4c-49.98-49.948-130.98-49.948-180.96,0l-21.12,21.44l-21.44-21.12
			C171.021,17.296,89.976,17.251,39.961,67.21c-0.034,0.034-0.067,0.067-0.101,0.101l-2.4,2.4c-49.948,49.98-49.948,130.98,0,180.96
			l204.96,204.16l204.48-204.48C496.848,200.371,496.848,119.371,446.901,69.391z M424.341,227.791l-181.92,181.92l-182.24-181.6
			c-37.511-37.469-37.545-98.253-0.076-135.764c0.025-0.025,0.05-0.05,0.076-0.076l2.4-2.4
			c37.469-37.511,98.253-37.545,135.764-0.076c0.025,0.025,0.05,0.05,0.076,0.076l70.72,70.88l22.56-22.56l-27.04-26.72l21.44-21.44
			c37.469-37.511,98.253-37.545,135.765-0.076c0.025,0.025,0.05,0.05,0.076,0.076l2.4,2.4
			C461.174,129.805,460.875,190.123,424.341,227.791z"/>
	</g>
</g>
<g>
</g>
<g>
</g>
<g>
</g>
<g>
</g>
<g>
</g>
<g>
</g>
<g>
</g>
<g>
</g>
<g>
</g>
<g>
</g>
<g>
</g>
<g>
</g>
<g>
</g>
<g>
</g>
<g>
</g>
</svg>
