<?xml version="1.0" encoding="iso-8859-1"?>
<!-- Generator: Adobe Illustrator 19.0.0, SVG Export Plug-In . SVG Version: 6.00 Build 0)  -->
<svg version="1.1" id="Capa_1" xmlns="http://www.w3.org/2000/svg" xmlns:xlink="http://www.w3.org/1999/xlink" x="0px" y="0px"
	 viewBox="0 0 511.999 511.999" style="enable-background:new 0 0 511.999 511.999;" xml:space="preserve">
<path style="fill:#5C913B;" d="M4.571,223.672c14.801,0,86.954,19.892,96.204,34.234l-18.96-1.85c0,0-57.826-18.516-72.627-18.516
	C-5.598,237.54,4.571,223.672,4.571,223.672"/>
<path style="fill:#99AAB5;" d="M155.628,14.801c14.801,14.801,44.402,103.605,44.402,148.007s-29.601,88.804,29.601,118.405
	s74.019-14.801,74.019-74.003S288.834,88.804,274.033,59.203s-29.601,0-29.601,0S229.631,0,214.83,0S200.03,29.601,200.03,29.601
	S170.428,0,155.628,0S155.628,14.801,155.628,14.801"/>
<path style="fill:#CCD6DD;" d="M140.836,207.21c44.402,0,59.188,59.203,88.789,59.203s14.801-44.402,44.402-44.402
	s148.007-74.003,148.007-162.807s44.402-44.402,44.402-14.801c14.801,0,29.601,23.474,29.601,44.402
	c0,14.801,0,29.601-14.801,44.402c14.801,0,29.601,29.601,14.801,44.402c14.801,44.402-14.801,88.804-44.402,103.605
	c0,14.801-29.601,44.402-59.203,29.601c0,0-14.801,44.402-44.402,29.601c0,0,45.171,24.924,59.203,29.601
	c44.402,14.801,103.605,14.801,103.605,14.801s0,14.801-29.601,29.601c0,0,14.801,14.801,0,29.601s-29.601,14.801-29.601,14.801
	s14.801,29.601-29.601,14.801c-44.402-14.801-88.804-59.203-88.804-59.203s-74.003,14.801-133.206-14.801
	s-88.804-88.804-88.804-118.405s-44.402-14.801-59.203-14.801s29.617-29.601,44.417-29.601
	C96.433,236.811,96.433,207.21,140.836,207.21"/>
<g>
	<path style="fill:#5C913B;" d="M95.689,251.886c0,0,80.471,38.852,117.473,98.514c28.137,45.364,41.175,128.129,41.175,128.129
		s0.637,8.347-13.41-33.775c-14.816-44.402-32.813-93.067-63.836-121.173c-49.493-44.875-70.303-51.802-89.722-62.903
		C82.457,257.866,90.598,250.495,95.689,251.886"/>
	<path style="fill:#5C913B;" d="M232.559,407.611c0,0,30.164,1.525,45.986,31.658c15.807,30.135-0.785,72.73-0.785,72.73
		s-40.687-18.767-51.24-43.633C215.982,443.518,232.559,407.611,232.559,407.611"/>
	<path style="fill:#5C913B;" d="M200.999,336.888c0,0,18.856,21.254,52.661,25.235c33.804,3.981,60.994-20.41,60.994-20.41
		s-31.732-29.157-58.743-30.09C228.928,310.677,200.999,336.888,200.999,336.888"/>
	<path style="fill:#5C913B;" d="M141.096,290.305c0,0-29.823,4.869-42.182,36.587c-12.359,31.703,6.29,59.336,6.29,59.336
		s37.49-12.536,45.201-38.423C158.131,321.949,141.096,290.305,141.096,290.305"/>
</g>
<g>
</g>
<g>
</g>
<g>
</g>
<g>
</g>
<g>
</g>
<g>
</g>
<g>
</g>
<g>
</g>
<g>
</g>
<g>
</g>
<g>
</g>
<g>
</g>
<g>
</g>
<g>
</g>
<g>
</g>
</svg>
